<?xml version="1.0" encoding="utf-8"?>
<!-- Generator: Adobe Illustrator 19.0.0, SVG Export Plug-In . SVG Version: 6.00 Build 0)  -->
<svg version="1.1" id="logo-text" xmlns="http://www.w3.org/2000/svg" xmlns:xlink="http://www.w3.org/1999/xlink" x="0px" y="0px"
	 viewBox="0 0 357.4106 49.054" enable-background="new 0 0 357.4106 49.054" xml:space="preserve">
<g id="XMLID_69_">
	<path id="XMLID_95_" d="M0,31.9832c0-9.2468,6.9175-17.0708,17.5227-17.0708c6.5952,0,10.6696,3.3627,12.7391,5.4315
		l-5.2388,5.8197c-2.0681-2.1984-4.3968-3.2977-7.1122-3.2977c-5.9492,0-9.3119,4.3324-9.3119,9.1172s3.3627,9.1178,9.3119,9.1178
		c2.7155,0,5.0441-1.0992,7.1122-3.2983l5.2388,5.8197c-2.0695,2.0695-6.1439,5.4315-12.7391,5.4315
		C6.9175,49.054,0,41.23,0,31.9832z"/>
	<path id="XMLID_93_" d="M66.7201,28.6212v19.4632h-8.5357v-18.041c0-4.6553-2.7812-7.1774-6.4662-7.1774
		c-4.8507,0-6.5965,3.8798-6.5965,9.0528v16.1656h-8.5344V1.657h8.5344v18.1055c2.5221-3.3627,6.1439-4.85,9.7-4.85
		C63.4219,14.9124,66.7201,20.538,66.7201,28.6212z"/>
	<path id="XMLID_90_" d="M107.1924,15.8821v32.2023h-8.2765l-0.129-3.491c-2.9101,3.0384-6.7898,4.4606-10.4118,4.4606
		c-9.6987,0-16.1649-8.018-16.1649-17.0708s6.4662-17.0708,16.1649-17.0708c3.6219,0,7.5016,1.2932,10.346,4.2028l0.1947-3.2331
		H107.1924z M98.9159,31.9832c0-5.1085-4.01-9.1172-9.0528-9.1172c-5.0441,0-9.1172,4.0087-9.1172,9.1172
		s4.0732,9.1178,9.1172,9.1178C94.9058,41.1011,98.9159,37.0918,98.9159,31.9832z"/>
	<path id="XMLID_88_" d="M167.5304,28.6212v19.4632h-8.5357v-18.041c0-4.6553-2.7155-7.1774-6.4018-7.1774
		c-4.8494,0-6.5952,3.8798-6.5952,9.0528v16.1656h-8.5357v-18.041c0-4.6553-2.7799-7.1774-6.4662-7.1774
		c-4.8494,0-6.5965,3.8798-6.5965,9.0528v16.1656h-8.5344V15.8821h8.2121l0.1934,4.0093c2.522-3.4916,6.2084-4.9789,9.829-4.9789
		c5.3032,0,8.6002,2.1984,10.3459,5.7552c2.1339-3.7508,5.8848-5.7552,10.0224-5.7552
		C163.0678,14.9124,167.5304,20.538,167.5304,28.6212z"/>
	<path id="XMLID_85_" d="M208.4776,15.8821v32.2023h-8.2779l-0.1289-3.491c-2.9101,3.0384-6.7899,4.4606-10.4105,4.4606
		c-9.7,0-16.1663-8.018-16.1663-17.0708s6.4663-17.0708,16.1663-17.0708c3.6206,0,7.5004,1.2932,10.346,4.2028l0.1934-3.2331
		H208.4776z M200.1998,31.9832c0-5.1085-4.0086-9.1172-9.0527-9.1172c-5.0427,0-9.1172,4.0087-9.1172,9.1172
		s4.0745,9.1178,9.1172,9.1178C196.1911,41.1011,200.1998,37.0918,200.1998,31.9832z"/>
	<path id="XMLID_83_" d="M217.1818,15.8821h8.5357v32.2023h-8.5357V15.8821z"/>
	<path id="XMLID_81_" d="M234.3426,1.657h8.5357v46.4274h-8.5357V1.657z"/>
	<path id="XMLID_78_" d="M282.6218,34.7638h-24.5073c1.2289,4.8493,5.5611,6.4012,8.6002,6.4012
		c4.8493,0,7.3714-1.9392,9.3764-3.4266l5.1086,5.8197c-1.9405,1.4873-6.7898,5.496-14.0968,5.496
		c-10.4105,0-17.7174-7.1774-17.7174-17.2004c0-10.5394,7.9529-16.9412,17.0057-16.9412c9.5698,0,16.1663,6.7248,16.2307,16.6827
		V34.7638z M258.3079,28.556h15.519c-0.7762-3.2976-3.4916-5.8196-7.5003-5.8196C262.1876,22.7365,259.3433,25.0644,258.3079,28.556
		z"/>
	<path id="XMLID_75_" d="M287.0488,31.8536c0-9.3757,7.6293-16.9412,17.4583-16.9412c9.7,0,17.3951,7.501,17.3951,16.9412
		c0,9.5704-7.7595,17.2004-17.3951,17.2004C294.8083,49.054,287.0488,41.2945,287.0488,31.8536z M313.6243,31.9188
		c0-5.4967-4.2679-9.0528-9.0528-9.0528c-4.8493,0-9.1817,3.6212-9.1817,9.0528c0,5.4967,4.3968,9.1823,9.1817,9.1823
		C309.2919,41.1011,313.6243,37.4792,313.6243,31.9188z"/>
	<path id="XMLID_73_" d="M357.4106,28.6212v19.4632h-8.5357v-18.041c0-4.6553-2.7812-7.1774-6.4662-7.1774
		c-4.8507,0-6.5952,3.8798-6.5952,9.0528v16.1656h-8.5357V15.8821h8.2121l0.1934,4.0093c2.522-3.4916,6.2084-4.9789,9.829-4.9789
		C354.1123,14.9124,357.4106,20.538,357.4106,28.6212z"/>
</g>
<circle id="XMLID_19_" cx="221.4818" cy="5.9373" r="5.9367"/>
</svg>
